<svg width="1520" height="435" viewBox="0 0 1520 435" fill="none" xmlns="http://www.w3.org/2000/svg">
<path d="M268.819 425.234H356.987C359.886 425.234 362.236 422.883 362.236 419.984V395.838C362.236 394.488 361.716 393.19 360.784 392.213L33.0501 48.8731C32.0595 47.8353 30.6873 47.2481 29.2526 47.2481H5.25C2.35062 47.2481 0.000213623 49.5985 0.000213623 52.4979V419.984C0.000213623 422.883 2.35062 425.234 5.25 425.234H29.3245C30.7168 425.234 32.0521 424.681 33.0366 423.696L77.2096 379.523C78.1941 378.539 78.7472 377.203 78.7472 375.811V248.968C78.7472 244.283 84.4173 241.944 87.72 245.266L265.096 423.685C266.081 424.676 267.421 425.234 268.819 425.234Z" fill="black"/>
<path d="M140.665 0H52.4978C49.5985 0 47.248 2.35042 47.248 5.2498V29.3954C47.248 30.7455 47.7682 32.0437 48.7004 33.0203L376.434 376.361C377.425 377.398 378.797 377.986 380.232 377.986H404.234C407.134 377.986 409.484 375.635 409.484 372.736V5.2498C409.484 2.35041 407.134 0 404.234 0H380.16C378.768 0 377.432 0.553101 376.448 1.53763L332.275 45.7106C331.29 46.6951 330.737 48.0304 330.737 49.4227V176.266C330.737 180.95 325.067 183.289 321.764 179.967L144.389 1.54853C143.403 0.557335 142.063 0 140.665 0Z" fill="url(#paint0_linear_21_546)"/>
<path d="M404.234 393.735H383.235C380.336 393.735 377.985 396.085 377.985 398.985V419.984C377.985 422.883 380.336 425.234 383.235 425.234H404.234C407.134 425.234 409.484 422.883 409.484 419.984V398.985C409.484 396.085 407.134 393.735 404.234 393.735Z" fill="#4E37AD"/>
<path d="M26.249 0H5.2498C2.35041 0 0 2.35042 0 5.2498V26.249C0 29.1484 2.35042 31.4988 5.2498 31.4988H26.249C29.1484 31.4988 31.4988 29.1484 31.4988 26.249V5.2498C31.4988 2.35042 29.1484 0 26.249 0Z" fill="black"/>
<path d="M486.071 113.48H526.476L617.754 278.194V113.48H648.868V323.169H608.464L517.186 160.667V323.169H486.071V113.48ZM700.833 225.55C700.833 215.425 703.291 206.184 708.206 197.828C713.22 189.472 719.905 182.836 728.261 177.92C736.617 172.907 745.858 170.4 755.984 170.4H789.31C799.436 170.4 808.677 172.907 817.033 177.92C825.389 182.836 832.024 189.472 836.94 197.828C841.954 206.184 844.46 215.425 844.46 225.55V268.019C844.46 278.145 841.954 287.386 836.94 295.742C832.024 304.098 825.389 310.783 817.033 315.796C808.677 320.712 799.436 323.169 789.31 323.169H755.984C745.858 323.169 736.617 320.712 728.261 315.796C719.905 310.783 713.22 304.098 708.206 295.742C703.291 287.386 700.833 278.145 700.833 268.019V225.55ZM731.948 267.724C731.948 274.409 734.307 280.16 739.026 284.977C743.745 289.696 749.397 292.055 755.984 292.055H789.31C795.995 292.055 801.648 289.696 806.268 284.977C810.987 280.16 813.346 274.409 813.346 267.724V225.845C813.346 219.16 810.987 213.458 806.268 208.74C801.648 203.923 795.995 201.514 789.31 201.514H755.984C749.397 201.514 743.745 203.923 739.026 208.74C734.307 213.458 731.948 219.16 731.948 225.845V267.724ZM909.992 170.4L950.839 278.194L991.39 170.4H1024.13L965.88 323.169H935.355L877.256 170.4H909.992ZM1056.92 225.55C1056.92 215.425 1059.38 206.184 1064.3 197.828C1069.31 189.472 1075.99 182.836 1084.35 177.92C1092.71 172.907 1101.95 170.4 1112.07 170.4H1145.4C1155.52 170.4 1164.77 172.907 1173.12 177.92C1181.48 182.836 1188.11 189.472 1193.03 197.828C1198.04 206.184 1200.55 215.425 1200.55 225.55V268.019C1200.55 278.145 1198.04 287.386 1193.03 295.742C1188.11 304.098 1181.48 310.783 1173.12 315.796C1164.77 320.712 1155.52 323.169 1145.4 323.169H1112.07C1101.95 323.169 1092.71 320.712 1084.35 315.796C1075.99 310.783 1069.31 304.098 1064.3 295.742C1059.38 287.386 1056.92 278.145 1056.92 268.019V225.55ZM1088.04 267.724C1088.04 274.409 1090.4 280.16 1095.11 284.977C1099.83 289.696 1105.49 292.055 1112.07 292.055H1145.4C1152.08 292.055 1157.74 289.696 1162.36 284.977C1167.08 280.16 1169.43 274.409 1169.43 267.724V225.845C1169.43 219.16 1167.08 213.458 1162.36 208.74C1157.74 203.923 1152.08 201.514 1145.4 201.514H1112.07C1105.49 201.514 1099.83 203.923 1095.11 208.74C1090.4 213.458 1088.04 219.16 1088.04 225.845V267.724ZM1249.57 213.164C1249.57 205.299 1251.53 198.123 1255.46 191.634C1259.49 185.146 1264.8 179.985 1271.39 176.151C1278.07 172.317 1285.45 170.4 1293.51 170.4H1327.57V201.367H1293.51C1289.97 201.367 1286.92 202.596 1284.37 205.053C1281.91 207.413 1280.68 210.313 1280.68 213.753V323.169H1249.57V213.164ZM1395.02 170.4L1434.69 276.277L1475.24 170.4H1509.6L1428.49 380.679H1394.43L1418.17 318.156L1361.99 170.4H1395.02Z" fill="url(#paint1_linear_21_546)"/>
<defs>
<linearGradient id="paint0_linear_21_546" x1="228.366" y1="0" x2="228.366" y2="377.986" gradientUnits="userSpaceOnUse">
<stop stop-color="#7ECEFF"/>
<stop offset="0.466346" stop-color="#425DF6"/>
<stop offset="1" stop-color="#4E37AD"/>
</linearGradient>
<linearGradient id="paint1_linear_21_546" x1="992.427" y1="33.1694" x2="992.427" y2="402.169" gradientUnits="userSpaceOnUse">
<stop stop-color="#7ECEFF"/>
<stop offset="0.466346" stop-color="#425DF6"/>
<stop offset="1" stop-color="#4E37AD"/>
</linearGradient>
</defs>
</svg>
