<svg width="1531" height="435" viewBox="0 0 1531 435" fill="none" xmlns="http://www.w3.org/2000/svg">
<path d="M268.819 425.234H356.987C359.886 425.234 362.236 422.883 362.236 419.984V395.838C362.236 394.488 361.716 393.19 360.784 392.213L33.0501 48.8731C32.0595 47.8353 30.6873 47.2481 29.2526 47.2481H5.25C2.35062 47.2481 0.000213623 49.5985 0.000213623 52.4979V419.984C0.000213623 422.883 2.35062 425.234 5.25 425.234H29.3245C30.7168 425.234 32.0521 424.681 33.0366 423.696L77.2096 379.523C78.1941 378.539 78.7472 377.203 78.7472 375.811V248.968C78.7472 244.283 84.4173 241.944 87.72 245.266L265.096 423.685C266.081 424.676 267.421 425.234 268.819 425.234Z" fill="black"/>
<path d="M140.665 0H52.4978C49.5985 0 47.248 2.35042 47.248 5.2498V29.3954C47.248 30.7455 47.7682 32.0437 48.7004 33.0203L376.434 376.361C377.425 377.398 378.797 377.986 380.232 377.986H404.234C407.134 377.986 409.484 375.635 409.484 372.736V5.2498C409.484 2.35041 407.134 0 404.234 0H380.16C378.768 0 377.432 0.553101 376.448 1.53763L332.275 45.7106C331.29 46.6951 330.737 48.0304 330.737 49.4227V176.266C330.737 180.95 325.067 183.289 321.764 179.967L144.389 1.54853C143.403 0.557335 142.063 0 140.665 0Z" fill="url(#paint0_linear_21_546)"/>
<path d="M404.234 393.735H383.235C380.336 393.735 377.985 396.085 377.985 398.985V419.984C377.985 422.883 380.336 425.234 383.235 425.234H404.234C407.134 425.234 409.484 422.883 409.484 419.984V398.985C409.484 396.085 407.134 393.735 404.234 393.735Z" fill="#4E37AD"/>
<path d="M26.249 0H5.2498C2.35041 0 0 2.35042 0 5.2498V26.249C0 29.1484 2.35042 31.4988 5.2498 31.4988H26.249C29.1484 31.4988 31.4988 29.1484 31.4988 26.249V5.2498C31.4988 2.35042 29.1484 0 26.249 0Z" fill="black"/>
<g filter="url(#filter0_d_21_546)">
<path d="M485.359 323.169V111.769H561.161L603.139 295.989H608.575V111.769H647.835V323.169H572.033L530.055 138.949H524.619V323.169H485.359ZM766.195 327.397C751.296 327.397 737.908 324.377 726.029 318.337C714.15 312.297 704.788 303.539 697.943 292.063C691.098 280.587 687.675 266.796 687.675 250.689V245.857C687.675 229.751 691.098 215.959 697.943 204.483C704.788 193.007 714.15 184.249 726.029 178.209C737.908 172.169 751.296 169.149 766.195 169.149C781.094 169.149 794.482 172.169 806.361 178.209C818.24 184.249 827.602 193.007 834.447 204.483C841.293 215.959 844.715 229.751 844.715 245.857V250.689C844.715 266.796 841.293 280.587 834.447 292.063C827.602 303.539 818.24 312.297 806.361 318.337C794.482 324.377 781.094 327.397 766.195 327.397ZM766.195 293.573C777.872 293.573 787.536 289.849 795.187 282.399C802.838 274.749 806.663 263.877 806.663 249.783V246.763C806.663 232.67 802.838 221.899 795.187 214.449C787.738 206.799 778.074 202.973 766.195 202.973C754.518 202.973 744.854 206.799 737.203 214.449C729.552 221.899 725.727 232.67 725.727 246.763V249.783C725.727 263.877 729.552 274.749 737.203 282.399C744.854 289.849 754.518 293.573 766.195 293.573ZM912.863 323.169L865.147 173.377H905.615L940.345 295.385H945.781L980.511 173.377H1020.98L973.263 323.169H912.863ZM1119.79 327.397C1104.9 327.397 1091.51 324.377 1079.63 318.337C1067.75 312.297 1058.39 303.539 1051.54 292.063C1044.7 280.587 1041.27 266.796 1041.27 250.689V245.857C1041.27 229.751 1044.7 215.959 1051.54 204.483C1058.39 193.007 1067.75 184.249 1079.63 178.209C1091.51 172.169 1104.9 169.149 1119.79 169.149C1134.69 169.149 1148.08 172.169 1159.96 178.209C1171.84 184.249 1181.2 193.007 1188.05 204.483C1194.89 215.959 1198.31 229.751 1198.31 245.857V250.689C1198.31 266.796 1194.89 280.587 1188.05 292.063C1181.2 303.539 1171.84 312.297 1159.96 318.337C1148.08 324.377 1134.69 327.397 1119.79 327.397ZM1119.79 293.573C1131.47 293.573 1141.14 289.849 1148.79 282.399C1156.44 274.749 1160.26 263.877 1160.26 249.783V246.763C1160.26 232.67 1156.44 221.899 1148.79 214.449C1141.34 206.799 1131.67 202.973 1119.79 202.973C1108.12 202.973 1098.45 206.799 1090.8 214.449C1083.15 221.899 1079.33 232.67 1079.33 246.763V249.783C1079.33 263.877 1083.15 274.749 1090.8 282.399C1098.45 289.849 1108.12 293.573 1119.79 293.573ZM1239.48 323.169V173.377H1276.93V190.289H1282.36C1284.58 184.249 1288.2 179.82 1293.23 177.001C1298.47 174.183 1304.51 172.773 1311.35 172.773H1329.47V206.597H1310.75C1301.09 206.597 1293.13 209.215 1286.89 214.449C1280.65 219.483 1277.53 227.335 1277.53 238.005V323.169H1239.48ZM1381.57 383.569V350.349H1463.11C1468.74 350.349 1471.56 347.329 1471.56 341.289V303.539H1466.13C1464.51 306.962 1462 310.385 1458.58 313.807C1455.15 317.23 1450.52 320.049 1444.68 322.263C1438.84 324.478 1431.4 325.585 1422.34 325.585C1410.66 325.585 1400.39 322.968 1391.53 317.733C1382.87 312.297 1376.13 304.848 1371.3 295.385C1366.47 285.923 1364.05 275.051 1364.05 262.769V173.377H1402.1V259.749C1402.1 271.024 1404.82 279.48 1410.26 285.117C1415.89 290.755 1423.85 293.573 1434.11 293.573C1445.79 293.573 1454.85 289.748 1461.29 282.097C1467.74 274.245 1470.96 263.373 1470.96 249.481V173.377H1509.01V349.745C1509.01 360.013 1505.99 368.167 1499.95 374.207C1493.91 380.449 1485.86 383.569 1475.79 383.569H1381.57Z" fill="url(#paint1_radial_21_546)"/>
</g>
<defs>
<filter id="filter0_d_21_546" x="485.359" y="111.77" width="1031.65" height="281.8" filterUnits="userSpaceOnUse" color-interpolation-filters="sRGB">
<feFlood flood-opacity="0" result="BackgroundImageFix"/>
<feColorMatrix in="SourceAlpha" type="matrix" values="0 0 0 0 0 0 0 0 0 0 0 0 0 0 0 0 0 0 127 0" result="hardAlpha"/>
<feOffset dx="8" dy="10"/>
<feComposite in2="hardAlpha" operator="out"/>
<feColorMatrix type="matrix" values="0 0 0 0 0.0461448 0 0 0 0 0.10294 0 0 0 0 0.35852 0 0 0 0.4 0"/>
<feBlend mode="normal" in2="BackgroundImageFix" result="effect1_dropShadow_21_546"/>
<feBlend mode="normal" in="SourceGraphic" in2="effect1_dropShadow_21_546" result="shape"/>
</filter>
<linearGradient id="paint0_linear_21_546" x1="228.366" y1="0" x2="228.366" y2="377.986" gradientUnits="userSpaceOnUse">
<stop stop-color="#7ECEFF"/>
<stop offset="0.466346" stop-color="#425DF6"/>
<stop offset="1" stop-color="#4E37AD"/>
</linearGradient>
<radialGradient id="paint1_radial_21_546" cx="0" cy="0" r="1" gradientTransform="matrix(987.663 215.197 -595.284 2974.76 465.427 108.549)" gradientUnits="userSpaceOnUse">
<stop offset="0.42"/>
<stop offset="0.57" stop-color="#563FBF"/>
<stop offset="0.71" stop-color="#4466FF"/>
<stop offset="0.85" stop-color="#44A2FF"/>
<stop offset="1" stop-color="#66BBFF"/>
</radialGradient>
</defs>
</svg>
