<svg width="1482" height="435" viewBox="0 0 1482 435" fill="none" xmlns="http://www.w3.org/2000/svg">
<path d="M268.819 425.234H356.987C359.886 425.234 362.236 422.883 362.236 419.984V395.838C362.236 394.488 361.716 393.19 360.784 392.213L33.0501 48.8731C32.0595 47.8353 30.6873 47.2481 29.2526 47.2481H5.25C2.35062 47.2481 0.000213623 49.5985 0.000213623 52.4979V419.984C0.000213623 422.883 2.35062 425.234 5.25 425.234H29.3245C30.7168 425.234 32.0521 424.681 33.0366 423.696L77.2096 379.523C78.1941 378.539 78.7472 377.203 78.7472 375.811V248.968C78.7472 244.283 84.4173 241.944 87.72 245.266L265.096 423.685C266.081 424.676 267.421 425.234 268.819 425.234Z" fill="white"/>
<path d="M140.665 0H52.4978C49.5985 0 47.248 2.35042 47.248 5.2498V29.3954C47.248 30.7455 47.7682 32.0437 48.7004 33.0203L376.434 376.361C377.425 377.398 378.797 377.986 380.232 377.986H404.234C407.134 377.986 409.484 375.635 409.484 372.736V5.2498C409.484 2.35041 407.134 0 404.234 0H380.16C378.768 0 377.432 0.553101 376.448 1.53763L332.275 45.7106C331.29 46.6951 330.737 48.0304 330.737 49.4227V176.266C330.737 180.95 325.067 183.289 321.764 179.967L144.389 1.54853C143.403 0.557335 142.063 0 140.665 0Z" fill="url(#paint0_linear_21_551)"/>
<path d="M404.234 393.735H383.235C380.336 393.735 377.985 396.085 377.985 398.985V419.984C377.985 422.883 380.336 425.234 383.235 425.234H404.234C407.134 425.234 409.484 422.883 409.484 419.984V398.985C409.484 396.085 407.134 393.735 404.234 393.735Z" fill="#4E37AD"/>
<path d="M26.249 0H5.2498C2.35041 0 0 2.35042 0 5.2498V26.249C0 29.1484 2.35042 31.4988 5.2498 31.4988H26.249C29.1484 31.4988 31.4988 29.1484 31.4988 26.249V5.2498C31.4988 2.35042 29.1484 0 26.249 0Z" fill="white"/>
<path d="M491.532 71.5049H523.909L597.053 203.494V71.5049H621.985V239.534H589.608L516.465 109.317V239.534H491.532V71.5049ZM663.626 161.31C663.626 153.196 665.596 145.791 669.535 139.095C673.552 132.399 678.909 127.081 685.605 123.143C692.301 119.125 699.706 117.116 707.82 117.116H734.525C742.639 117.116 750.044 119.125 756.74 123.143C763.436 127.081 768.753 132.399 772.692 139.095C776.709 145.791 778.718 153.196 778.718 161.31V195.341C778.718 203.455 776.709 210.86 772.692 217.556C768.753 224.252 763.436 229.608 756.74 233.626C750.044 237.565 742.639 239.534 734.525 239.534H707.82C699.706 239.534 692.301 237.565 685.605 233.626C678.909 229.608 673.552 224.252 669.535 217.556C665.596 210.86 663.626 203.455 663.626 195.341V161.31ZM688.559 195.104C688.559 200.461 690.45 205.07 694.231 208.93C698.012 212.711 702.542 214.602 707.82 214.602H734.525C739.882 214.602 744.411 212.711 748.114 208.93C751.895 205.07 753.786 200.461 753.786 195.104V161.546C753.786 156.189 751.895 151.62 748.114 147.839C744.411 143.979 739.882 142.049 734.525 142.049H707.82C702.542 142.049 698.012 143.979 694.231 147.839C690.45 151.62 688.559 156.189 688.559 161.546V195.104ZM831.23 117.116L863.962 203.494L896.457 117.116H922.689L876.014 239.534H851.555L804.998 117.116H831.23ZM948.969 161.31C948.969 153.196 950.938 145.791 954.877 139.095C958.895 132.399 964.251 127.081 970.947 123.143C977.643 119.125 985.048 117.116 993.162 117.116H1019.87C1027.98 117.116 1035.39 119.125 1042.08 123.143C1048.78 127.081 1054.1 132.399 1058.03 139.095C1062.05 145.791 1064.06 153.196 1064.06 161.31V195.341C1064.06 203.455 1062.05 210.86 1058.03 217.556C1054.1 224.252 1048.78 229.608 1042.08 233.626C1035.39 237.565 1027.98 239.534 1019.87 239.534H993.162C985.048 239.534 977.643 237.565 970.947 233.626C964.251 229.608 958.895 224.252 954.877 217.556C950.938 210.86 948.969 203.455 948.969 195.341V161.31ZM973.902 195.104C973.902 200.461 975.792 205.07 979.573 208.93C983.355 212.711 987.884 214.602 993.162 214.602H1019.87C1025.22 214.602 1029.75 212.711 1033.46 208.93C1037.24 205.07 1039.13 200.461 1039.13 195.104V161.546C1039.13 156.189 1037.24 151.62 1033.46 147.839C1029.75 143.979 1025.22 142.049 1019.87 142.049H993.162C987.884 142.049 983.355 143.979 979.573 147.839C975.792 151.62 973.902 156.189 973.902 161.546V195.104ZM1103.34 151.384C1103.34 145.082 1104.91 139.331 1108.07 134.132C1111.29 128.933 1115.55 124.797 1120.83 121.725C1126.18 118.652 1132.09 117.116 1138.55 117.116H1165.85V141.931H1138.55C1135.72 141.931 1133.27 142.915 1131.23 144.885C1129.26 146.775 1128.27 149.099 1128.27 151.856V239.534H1103.34V151.384ZM1219.9 117.116L1251.68 201.958L1284.18 117.116H1311.71L1246.72 285.618H1219.42L1238.45 235.517L1193.43 117.116H1219.9Z" fill="url(#paint1_linear_21_551)"/>
<path d="M482.122 402.441V344.829H490.901V402.441H482.122ZM548.857 402.441L515.152 365.131L515.388 371.401V402.441H506.609V344.751H507.706L541.568 382.532L541.254 375.948V344.829H550.033V402.441H548.857ZM607.661 402.441L573.956 365.131L574.191 371.401V402.441H565.412V344.751H566.509L600.371 382.532L600.057 375.948V344.829H608.836V402.441H607.661ZM651.168 403.225C647.249 403.225 643.539 402.546 640.038 401.187C636.589 399.829 633.532 397.869 630.867 395.308C628.202 392.696 626.085 389.56 624.518 385.902C623.002 382.244 622.244 378.116 622.244 373.518C622.244 368.867 623.002 364.713 624.518 361.055C626.085 357.397 628.202 354.288 630.867 351.727C633.584 349.167 636.667 347.233 640.116 345.927C643.617 344.568 647.301 343.889 651.168 343.889C655.035 343.889 658.693 344.568 662.142 345.927C665.643 347.233 668.726 349.167 671.391 351.727C674.108 354.288 676.225 357.397 677.74 361.055C679.308 364.713 680.092 368.867 680.092 373.518C680.092 378.116 679.308 382.244 677.74 385.902C676.225 389.56 674.134 392.696 671.469 395.308C668.804 397.869 665.721 399.829 662.22 401.187C658.771 402.546 655.087 403.225 651.168 403.225ZM651.168 395.308C654.721 395.308 657.987 394.472 660.966 392.8C663.945 391.128 666.322 388.698 668.099 385.51C669.876 382.271 670.764 378.299 670.764 373.596C670.764 368.841 669.876 364.869 668.099 361.682C666.322 358.442 663.945 356.012 660.966 354.392C658.04 352.72 654.774 351.884 651.168 351.884C647.562 351.884 644.27 352.72 641.292 354.392C638.365 356.012 636.014 358.442 634.237 361.682C632.46 364.869 631.572 368.841 631.572 373.596C631.572 378.299 632.487 382.271 634.315 385.51C636.144 388.698 638.548 391.128 641.527 392.8C644.505 394.472 647.719 395.308 651.168 395.308ZM711.333 402.441L684.683 344.829H694.637L711.882 384.413L729.205 344.829H739.081L712.509 402.441H711.333ZM760.896 344.751H761.758L789.506 402.441H779.395L774.457 391.154H748.041L743.103 402.441H733.305L760.896 344.751ZM761.288 361.447L757.839 369.285L751.569 383.237H771.008L764.815 369.363L761.445 361.447H761.288ZM821.829 402.99C817.231 402.99 813.129 402.206 809.523 400.639C805.97 399.071 802.939 396.928 800.43 394.211C797.974 391.442 796.093 388.306 794.787 384.805C793.533 381.252 792.906 377.489 792.906 373.518C792.906 369.181 793.611 365.209 795.022 361.603C796.485 357.998 798.523 354.889 801.136 352.276C803.749 349.611 806.858 347.547 810.464 346.083C814.069 344.62 818.041 343.889 822.378 343.889C825.2 343.889 827.708 344.176 829.903 344.751C832.098 345.326 833.9 345.979 835.311 346.71C836.722 347.39 837.611 347.938 837.976 348.357L834.136 356.195C832.725 354.941 830.974 353.922 828.884 353.138C826.846 352.354 824.442 351.962 821.673 351.962C818.067 351.962 814.801 352.851 811.875 354.627C809 356.404 806.701 358.912 804.977 362.152C803.305 365.392 802.468 369.233 802.468 373.675C802.468 377.594 803.2 381.173 804.663 384.413C806.126 387.601 808.269 390.161 811.091 392.095C813.965 394.028 817.44 394.995 821.516 394.995C823.763 394.995 825.957 394.708 828.1 394.133C830.295 393.506 832.542 392.487 834.841 391.076L837.428 398.522C836.748 399.149 835.599 399.829 833.979 400.56C832.359 401.24 830.478 401.814 828.335 402.285C826.245 402.755 824.076 402.99 821.829 402.99ZM851.185 402.441V344.829H859.964V402.441H851.185ZM902.854 403.225C898.935 403.225 895.224 402.546 891.723 401.187C888.274 399.829 885.217 397.869 882.552 395.308C879.887 392.696 877.771 389.56 876.203 385.902C874.688 382.244 873.93 378.116 873.93 373.518C873.93 368.867 874.688 364.713 876.203 361.055C877.771 357.397 879.887 354.288 882.552 351.727C885.27 349.167 888.353 347.233 891.802 345.927C895.303 344.568 898.987 343.889 902.854 343.889C906.721 343.889 910.379 344.568 913.827 345.927C917.329 347.233 920.412 349.167 923.077 351.727C925.794 354.288 927.91 357.397 929.426 361.055C930.994 364.713 931.777 368.867 931.777 373.518C931.777 378.116 930.994 382.244 929.426 385.902C927.91 389.56 925.82 392.696 923.155 395.308C920.49 397.869 917.407 399.829 913.906 401.187C910.457 402.546 906.773 403.225 902.854 403.225ZM902.854 395.308C906.407 395.308 909.673 394.472 912.652 392.8C915.63 391.128 918.008 388.698 919.785 385.51C921.561 382.271 922.45 378.299 922.45 373.596C922.45 368.841 921.561 364.869 919.785 361.682C918.008 358.442 915.63 356.012 912.652 354.392C909.725 352.72 906.459 351.884 902.854 351.884C899.248 351.884 895.956 352.72 892.977 354.392C890.051 356.012 887.7 358.442 885.923 361.682C884.146 364.869 883.258 368.841 883.258 373.596C883.258 378.299 884.172 382.271 886.001 385.51C887.83 388.698 890.234 391.128 893.213 392.8C896.191 394.472 899.405 395.308 902.854 395.308ZM899.797 340.44L896.426 335.266L911.789 323.587L916.493 330.093L899.797 340.44ZM987.44 402.441L953.735 365.131L953.97 371.401V402.441H945.191V344.751H946.288L980.15 382.532L979.836 375.948V344.829H988.615V402.441H987.44ZM1054.07 402.99C1049.47 402.99 1045.37 402.206 1041.77 400.639C1038.21 399.071 1035.18 396.928 1032.67 394.211C1030.22 391.442 1028.34 388.306 1027.03 384.805C1025.78 381.252 1025.15 377.489 1025.15 373.518C1025.15 369.181 1025.85 365.209 1027.26 361.603C1028.73 357.998 1030.77 354.889 1033.38 352.276C1035.99 349.611 1039.1 347.547 1042.71 346.083C1046.31 344.62 1050.28 343.889 1054.62 343.889C1057.44 343.889 1059.95 344.176 1062.15 344.751C1064.34 345.326 1066.14 345.979 1067.55 346.71C1068.97 347.39 1069.85 347.938 1070.22 348.357L1066.38 356.195C1064.97 354.941 1063.22 353.922 1061.13 353.138C1059.09 352.354 1056.68 351.962 1053.92 351.962C1050.31 351.962 1047.04 352.851 1044.12 354.627C1041.24 356.404 1038.94 358.912 1037.22 362.152C1035.55 365.392 1034.71 369.233 1034.71 373.675C1034.71 377.594 1035.44 381.173 1036.91 384.413C1038.37 387.601 1040.51 390.161 1043.33 392.095C1046.21 394.028 1049.68 394.995 1053.76 394.995C1056.01 394.995 1058.2 394.708 1060.34 394.133C1062.54 393.506 1064.78 392.487 1067.08 391.076L1069.67 398.522C1068.99 399.149 1067.84 399.829 1066.22 400.56C1064.6 401.24 1062.72 401.814 1060.58 402.285C1058.49 402.755 1056.32 402.99 1054.07 402.99ZM1106.84 403.225C1102.92 403.225 1099.21 402.546 1095.7 401.187C1092.26 399.829 1089.2 397.869 1086.53 395.308C1083.87 392.696 1081.75 389.56 1080.18 385.902C1078.67 382.244 1077.91 378.116 1077.91 373.518C1077.91 368.867 1078.67 364.713 1080.18 361.055C1081.75 357.397 1083.87 354.288 1086.53 351.727C1089.25 349.167 1092.33 347.233 1095.78 345.927C1099.28 344.568 1102.97 343.889 1106.84 343.889C1110.7 343.889 1114.36 344.568 1117.81 345.927C1121.31 347.233 1124.39 349.167 1127.06 351.727C1129.78 354.288 1131.89 357.397 1133.41 361.055C1134.98 364.713 1135.76 368.867 1135.76 373.518C1135.76 378.116 1134.98 382.244 1133.41 385.902C1131.89 389.56 1129.8 392.696 1127.14 395.308C1124.47 397.869 1121.39 399.829 1117.89 401.187C1114.44 402.546 1110.75 403.225 1106.84 403.225ZM1106.84 395.308C1110.39 395.308 1113.65 394.472 1116.63 392.8C1119.61 391.128 1121.99 388.698 1123.77 385.51C1125.54 382.271 1126.43 378.299 1126.43 373.596C1126.43 368.841 1125.54 364.869 1123.77 361.682C1121.99 358.442 1119.61 356.012 1116.63 354.392C1113.71 352.72 1110.44 351.884 1106.84 351.884C1103.23 351.884 1099.94 352.72 1096.96 354.392C1094.03 356.012 1091.68 358.442 1089.9 361.682C1088.13 364.869 1087.24 368.841 1087.24 373.596C1087.24 378.299 1088.15 382.271 1089.98 385.51C1091.81 388.698 1094.22 391.128 1097.19 392.8C1100.17 394.472 1103.39 395.308 1106.84 395.308ZM1191.42 402.441L1157.72 365.131L1157.95 371.401V402.441H1149.17V344.751H1150.27L1184.13 382.532L1183.82 375.948V344.829H1192.6V402.441H1191.42ZM1251.16 402.441L1224.51 344.829H1234.46L1251.7 384.413L1269.03 344.829H1278.9L1252.33 402.441H1251.16ZM1300.72 344.751H1301.58L1329.33 402.441H1319.22L1314.28 391.154H1287.86L1282.93 402.441H1273.13L1300.72 344.751ZM1301.11 361.447L1297.66 369.285L1291.39 383.237H1310.83L1304.64 369.363L1301.27 361.447H1301.11ZM1337.77 402.441V344.829H1346.63V394.603H1363.16V402.441H1337.77ZM1397.8 403.225C1393.89 403.225 1390.18 402.546 1386.67 401.187C1383.23 399.829 1380.17 397.869 1377.5 395.308C1374.84 392.696 1372.72 389.56 1371.15 385.902C1369.64 382.244 1368.88 378.116 1368.88 373.518C1368.88 368.867 1369.64 364.713 1371.15 361.055C1372.72 357.397 1374.84 354.288 1377.5 351.727C1380.22 349.167 1383.3 347.233 1386.75 345.927C1390.25 344.568 1393.94 343.889 1397.8 343.889C1401.67 343.889 1405.33 344.568 1408.78 345.927C1412.28 347.233 1415.36 349.167 1418.03 351.727C1420.75 354.288 1422.86 357.397 1424.38 361.055C1425.94 364.713 1426.73 368.867 1426.73 373.518C1426.73 378.116 1425.94 382.244 1424.38 385.902C1422.86 389.56 1420.77 392.696 1418.11 395.308C1415.44 397.869 1412.36 399.829 1408.86 401.187C1405.41 402.546 1401.72 403.225 1397.8 403.225ZM1397.8 395.308C1401.36 395.308 1404.62 394.472 1407.6 392.8C1410.58 391.128 1412.96 388.698 1414.74 385.51C1416.51 382.271 1417.4 378.299 1417.4 373.596C1417.4 368.841 1416.51 364.869 1414.74 361.682C1412.96 358.442 1410.58 356.012 1407.6 354.392C1404.68 352.72 1401.41 351.884 1397.8 351.884C1394.2 351.884 1390.91 352.72 1387.93 354.392C1385 356.012 1382.65 358.442 1380.87 361.682C1379.1 364.869 1378.21 368.841 1378.21 373.596C1378.21 378.299 1379.12 382.271 1380.95 385.51C1382.78 388.698 1385.19 391.128 1388.16 392.8C1391.14 394.472 1394.36 395.308 1397.8 395.308ZM1440.14 402.441V344.829H1453.23C1456.16 344.829 1458.98 345.117 1461.7 345.691C1464.47 346.266 1466.92 347.233 1469.07 348.592C1471.21 349.95 1472.91 351.753 1474.16 354C1475.41 356.247 1476.04 359.017 1476.04 362.309C1476.04 366.124 1475.15 369.442 1473.38 372.264C1471.6 375.085 1468.91 377.254 1465.3 378.769L1479.02 402.441H1468.91L1457.31 380.651C1456.42 380.703 1455.32 380.755 1454.02 380.807C1452.76 380.807 1451.72 380.807 1450.88 380.807H1448.69V402.441H1440.14ZM1448.69 373.675H1454.25C1457.13 373.675 1459.42 373.309 1461.15 372.577C1462.93 371.846 1464.28 370.931 1465.22 369.834C1466.17 368.684 1466.79 367.456 1467.11 366.15C1467.47 364.791 1467.65 363.537 1467.65 362.387C1467.65 359.827 1467.05 357.815 1465.85 356.352C1464.7 354.836 1463.08 353.765 1460.99 353.138C1458.95 352.459 1456.6 352.119 1453.94 352.119H1448.69V373.675Z" fill="white"/>
<defs>
<linearGradient id="paint0_linear_21_551" x1="228.366" y1="0" x2="228.366" y2="377.986" gradientUnits="userSpaceOnUse">
<stop stop-color="#7ECEFF"/>
<stop offset="0.466346" stop-color="#425DF6"/>
<stop offset="1" stop-color="#4E37AD"/>
</linearGradient>
<linearGradient id="paint1_linear_21_551" x1="896.989" y1="7.53418" x2="896.989" y2="302.534" gradientUnits="userSpaceOnUse">
<stop stop-color="#7ECEFF"/>
<stop offset="0.466346" stop-color="#425DF6"/>
<stop offset="1" stop-color="#4E37AD"/>
</linearGradient>
</defs>
</svg>
