<svg width="1482" height="435" viewBox="0 0 1482 435" fill="none" xmlns="http://www.w3.org/2000/svg">
<path d="M268.819 425.234H356.987C359.886 425.234 362.236 422.883 362.236 419.984V395.838C362.236 394.488 361.716 393.19 360.784 392.213L33.0501 48.8731C32.0595 47.8353 30.6873 47.2481 29.2526 47.2481H5.25C2.35062 47.2481 0.000213623 49.5985 0.000213623 52.4979V419.984C0.000213623 422.883 2.35062 425.234 5.25 425.234H29.3245C30.7168 425.234 32.0521 424.681 33.0366 423.696L77.2096 379.523C78.1941 378.539 78.7472 377.203 78.7472 375.811V248.968C78.7472 244.283 84.4173 241.944 87.72 245.266L265.096 423.685C266.081 424.676 267.421 425.234 268.819 425.234Z" fill="black"/>
<path d="M140.665 0H52.4978C49.5985 0 47.248 2.35042 47.248 5.2498V29.3954C47.248 30.7455 47.7682 32.0437 48.7004 33.0203L376.434 376.361C377.425 377.398 378.797 377.986 380.232 377.986H404.234C407.134 377.986 409.484 375.635 409.484 372.736V5.2498C409.484 2.35041 407.134 0 404.234 0H380.16C378.768 0 377.432 0.553101 376.448 1.53763L332.275 45.7106C331.29 46.6951 330.737 48.0304 330.737 49.4227V176.266C330.737 180.95 325.067 183.289 321.764 179.967L144.389 1.54853C143.403 0.557335 142.063 0 140.665 0Z" fill="url(#paint0_linear_21_550)"/>
<path d="M404.234 393.735H383.235C380.336 393.735 377.985 396.085 377.985 398.985V419.984C377.985 422.883 380.336 425.234 383.235 425.234H404.234C407.134 425.234 409.484 422.883 409.484 419.984V398.985C409.484 396.085 407.134 393.735 404.234 393.735Z" fill="#4E37AD"/>
<path d="M26.249 0H5.2498C2.35041 0 0 2.35042 0 5.2498V26.249C0 29.1484 2.35042 31.4988 5.2498 31.4988H26.249C29.1484 31.4988 31.4988 29.1484 31.4988 26.249V5.2498C31.4988 2.35042 29.1484 0 26.249 0Z" fill="black"/>
<path d="M491.286 85.1587H523.663L596.807 217.148V85.1587H621.739V253.188H589.362L516.219 122.971V253.188H491.286V85.1587ZM663.38 174.963C663.38 166.849 665.35 159.444 669.288 152.749C673.306 146.053 678.663 140.735 685.359 136.796C692.055 132.779 699.46 130.77 707.574 130.77H734.279C742.393 130.77 749.798 132.779 756.494 136.796C763.19 140.735 768.507 146.053 772.446 152.749C776.463 159.444 778.472 166.849 778.472 174.963V208.995C778.472 217.109 776.463 224.514 772.446 231.209C768.507 237.905 763.19 243.262 756.494 247.28C749.798 251.219 742.393 253.188 734.279 253.188H707.574C699.46 253.188 692.055 251.219 685.359 247.28C678.663 243.262 673.306 237.905 669.288 231.209C665.35 224.514 663.38 217.109 663.38 208.995V174.963ZM688.313 208.758C688.313 214.115 690.204 218.723 693.985 222.583C697.766 226.365 702.296 228.255 707.574 228.255H734.279C739.635 228.255 744.165 226.365 747.868 222.583C751.649 218.723 753.539 214.115 753.539 208.758V175.2C753.539 169.843 751.649 165.274 747.868 161.493C744.165 157.633 739.635 155.703 734.279 155.703H707.574C702.296 155.703 697.766 157.633 693.985 161.493C690.204 165.274 688.313 169.843 688.313 175.2V208.758ZM830.984 130.77L863.716 217.148L896.211 130.77H922.443L875.768 253.188H851.308L804.752 130.77H830.984ZM948.723 174.963C948.723 166.849 950.692 159.444 954.631 152.749C958.649 146.053 964.005 140.735 970.701 136.796C977.397 132.779 984.802 130.77 992.916 130.77H1019.62C1027.74 130.77 1035.14 132.779 1041.84 136.796C1048.53 140.735 1053.85 146.053 1057.79 152.749C1061.81 159.444 1063.81 166.849 1063.81 174.963V208.995C1063.81 217.109 1061.81 224.514 1057.79 231.209C1053.85 237.905 1048.53 243.262 1041.84 247.28C1035.14 251.219 1027.74 253.188 1019.62 253.188H992.916C984.802 253.188 977.397 251.219 970.701 247.28C964.005 243.262 958.649 237.905 954.631 231.209C950.692 224.514 948.723 217.109 948.723 208.995V174.963ZM973.655 208.758C973.655 214.115 975.546 218.723 979.327 222.583C983.109 226.365 987.638 228.255 992.916 228.255H1019.62C1024.98 228.255 1029.51 226.365 1033.21 222.583C1036.99 218.723 1038.88 214.115 1038.88 208.758V175.2C1038.88 169.843 1036.99 165.274 1033.21 161.493C1029.51 157.633 1024.98 155.703 1019.62 155.703H992.916C987.638 155.703 983.109 157.633 979.327 161.493C975.546 165.274 973.655 169.843 973.655 175.2V208.758ZM1103.09 165.038C1103.09 158.736 1104.67 152.985 1107.82 147.786C1111.05 142.586 1115.3 138.451 1120.58 135.378C1125.94 132.306 1131.85 130.77 1138.31 130.77H1165.6V155.584H1138.31C1135.47 155.584 1133.03 156.569 1130.98 158.539C1129.01 160.429 1128.03 162.753 1128.03 165.51V253.188H1103.09V165.038ZM1219.65 130.77L1251.44 215.612L1283.93 130.77H1311.46L1246.47 299.272H1219.18L1238.2 249.17L1193.18 130.77H1219.65Z" fill="url(#paint1_linear_21_550)"/>
<path d="M482.121 402.442V344.83H490.9V402.442H482.121ZM548.857 402.442L515.151 365.131L515.387 371.402V402.442H506.608V344.751H507.705L541.567 382.532L541.253 375.948V344.83H550.032V402.442H548.857ZM607.66 402.442L573.955 365.131L574.19 371.402V402.442H565.411V344.751H566.508L600.37 382.532L600.056 375.948V344.83H608.835V402.442H607.66ZM651.167 403.225C647.248 403.225 643.538 402.546 640.037 401.188C636.588 399.829 633.531 397.869 630.866 395.309C628.201 392.696 626.084 389.561 624.517 385.903C623.001 382.245 622.243 378.117 622.243 373.518C622.243 368.867 623.001 364.713 624.517 361.055C626.084 357.397 628.201 354.288 630.866 351.727C633.583 349.167 636.666 347.233 640.115 345.927C643.616 344.568 647.3 343.889 651.167 343.889C655.034 343.889 658.692 344.568 662.141 345.927C665.642 347.233 668.725 349.167 671.39 351.727C674.107 354.288 676.224 357.397 677.739 361.055C679.307 364.713 680.091 368.867 680.091 373.518C680.091 378.117 679.307 382.245 677.739 385.903C676.224 389.561 674.134 392.696 671.468 395.309C668.803 397.869 665.72 399.829 662.219 401.188C658.77 402.546 655.086 403.225 651.167 403.225ZM651.167 395.309C654.72 395.309 657.986 394.473 660.965 392.8C663.944 391.128 666.321 388.698 668.098 385.511C669.875 382.271 670.763 378.299 670.763 373.596C670.763 368.841 669.875 364.87 668.098 361.682C666.321 358.442 663.944 356.012 660.965 354.392C658.039 352.72 654.773 351.884 651.167 351.884C647.561 351.884 644.269 352.72 641.291 354.392C638.364 356.012 636.013 358.442 634.236 361.682C632.459 364.87 631.571 368.841 631.571 373.596C631.571 378.299 632.486 382.271 634.315 385.511C636.143 388.698 638.547 391.128 641.526 392.8C644.504 394.473 647.718 395.309 651.167 395.309ZM711.332 402.442L684.682 344.83H694.636L711.881 384.413L729.204 344.83H739.08L712.508 402.442H711.332ZM760.895 344.751H761.757L789.505 402.442H779.394L774.456 391.154H748.04L743.102 402.442H733.304L760.895 344.751ZM761.287 361.447L757.838 369.285L751.568 383.238H771.007L764.814 369.364L761.444 361.447H761.287ZM821.828 402.99C817.23 402.99 813.128 402.206 809.522 400.639C805.969 399.071 802.938 396.929 800.43 394.211C797.973 391.442 796.092 388.306 794.786 384.805C793.532 381.252 792.905 377.489 792.905 373.518C792.905 369.181 793.61 365.209 795.021 361.604C796.484 357.998 798.522 354.889 801.135 352.276C803.748 349.611 806.857 347.547 810.463 346.084C814.068 344.62 818.04 343.889 822.377 343.889C825.199 343.889 827.707 344.176 829.902 344.751C832.097 345.326 833.899 345.979 835.31 346.711C836.721 347.39 837.61 347.939 837.975 348.357L834.135 356.195C832.724 354.941 830.973 353.922 828.883 353.138C826.845 352.354 824.441 351.962 821.672 351.962C818.066 351.962 814.8 352.851 811.874 354.627C808.999 356.404 806.7 358.912 804.976 362.152C803.304 365.392 802.467 369.233 802.467 373.675C802.467 377.594 803.199 381.173 804.662 384.413C806.125 387.601 808.268 390.162 811.09 392.095C813.964 394.028 817.439 394.995 821.515 394.995C823.762 394.995 825.957 394.708 828.099 394.133C830.294 393.506 832.541 392.487 834.84 391.076L837.427 398.522C836.747 399.15 835.598 399.829 833.978 400.56C832.358 401.24 830.477 401.815 828.334 402.285C826.244 402.755 824.075 402.99 821.828 402.99ZM851.184 402.442V344.83H859.963V402.442H851.184ZM902.853 403.225C898.934 403.225 895.223 402.546 891.722 401.188C888.273 399.829 885.216 397.869 882.551 395.309C879.886 392.696 877.77 389.561 876.202 385.903C874.687 382.245 873.929 378.117 873.929 373.518C873.929 368.867 874.687 364.713 876.202 361.055C877.77 357.397 879.886 354.288 882.551 351.727C885.269 349.167 888.352 347.233 891.801 345.927C895.302 344.568 898.986 343.889 902.853 343.889C906.72 343.889 910.378 344.568 913.826 345.927C917.328 347.233 920.411 349.167 923.076 351.727C925.793 354.288 927.909 357.397 929.425 361.055C930.993 364.713 931.776 368.867 931.776 373.518C931.776 378.117 930.993 382.245 929.425 385.903C927.909 389.561 925.819 392.696 923.154 395.309C920.489 397.869 917.406 399.829 913.905 401.188C910.456 402.546 906.772 403.225 902.853 403.225ZM902.853 395.309C906.406 395.309 909.672 394.473 912.651 392.8C915.629 391.128 918.007 388.698 919.784 385.511C921.56 382.271 922.449 378.299 922.449 373.596C922.449 368.841 921.56 364.87 919.784 361.682C918.007 358.442 915.629 356.012 912.651 354.392C909.724 352.72 906.458 351.884 902.853 351.884C899.247 351.884 895.955 352.72 892.976 354.392C890.05 356.012 887.699 358.442 885.922 361.682C884.145 364.87 883.257 368.841 883.257 373.596C883.257 378.299 884.171 382.271 886 385.511C887.829 388.698 890.233 391.128 893.212 392.8C896.19 394.473 899.404 395.309 902.853 395.309ZM899.796 340.44L896.425 335.267L911.789 323.587L916.492 330.093L899.796 340.44ZM987.439 402.442L953.734 365.131L953.969 371.402V402.442H945.19V344.751H946.287L980.149 382.532L979.835 375.948V344.83H988.614V402.442H987.439ZM1054.07 402.99C1049.47 402.99 1045.37 402.206 1041.76 400.639C1038.21 399.071 1035.18 396.929 1032.67 394.211C1030.22 391.442 1028.34 388.306 1027.03 384.805C1025.77 381.252 1025.15 377.489 1025.15 373.518C1025.15 369.181 1025.85 365.209 1027.26 361.604C1028.73 357.998 1030.76 354.889 1033.38 352.276C1035.99 349.611 1039.1 347.547 1042.71 346.084C1046.31 344.62 1050.28 343.889 1054.62 343.889C1057.44 343.889 1059.95 344.176 1062.14 344.751C1064.34 345.326 1066.14 345.979 1067.55 346.711C1068.96 347.39 1069.85 347.939 1070.22 348.357L1066.38 356.195C1064.97 354.941 1063.22 353.922 1061.13 353.138C1059.09 352.354 1056.68 351.962 1053.91 351.962C1050.31 351.962 1047.04 352.851 1044.12 354.627C1041.24 356.404 1038.94 358.912 1037.22 362.152C1035.55 365.392 1034.71 369.233 1034.71 373.675C1034.71 377.594 1035.44 381.173 1036.91 384.413C1038.37 387.601 1040.51 390.162 1043.33 392.095C1046.21 394.028 1049.68 394.995 1053.76 394.995C1056 394.995 1058.2 394.708 1060.34 394.133C1062.54 393.506 1064.78 392.487 1067.08 391.076L1069.67 398.522C1068.99 399.15 1067.84 399.829 1066.22 400.56C1064.6 401.24 1062.72 401.815 1060.58 402.285C1058.49 402.755 1056.32 402.99 1054.07 402.99ZM1106.83 403.225C1102.92 403.225 1099.21 402.546 1095.7 401.188C1092.26 399.829 1089.2 397.869 1086.53 395.309C1083.87 392.696 1081.75 389.561 1080.18 385.903C1078.67 382.245 1077.91 378.117 1077.91 373.518C1077.91 368.867 1078.67 364.713 1080.18 361.055C1081.75 357.397 1083.87 354.288 1086.53 351.727C1089.25 349.167 1092.33 347.233 1095.78 345.927C1099.28 344.568 1102.97 343.889 1106.83 343.889C1110.7 343.889 1114.36 344.568 1117.81 345.927C1121.31 347.233 1124.39 349.167 1127.06 351.727C1129.77 354.288 1131.89 357.397 1133.41 361.055C1134.97 364.713 1135.76 368.867 1135.76 373.518C1135.76 378.117 1134.97 382.245 1133.41 385.903C1131.89 389.561 1129.8 392.696 1127.14 395.309C1124.47 397.869 1121.39 399.829 1117.89 401.188C1114.44 402.546 1110.75 403.225 1106.83 403.225ZM1106.83 395.309C1110.39 395.309 1113.65 394.473 1116.63 392.8C1119.61 391.128 1121.99 388.698 1123.77 385.511C1125.54 382.271 1126.43 378.299 1126.43 373.596C1126.43 368.841 1125.54 364.87 1123.77 361.682C1121.99 358.442 1119.61 356.012 1116.63 354.392C1113.71 352.72 1110.44 351.884 1106.83 351.884C1103.23 351.884 1099.94 352.72 1096.96 354.392C1094.03 356.012 1091.68 358.442 1089.9 361.682C1088.13 364.87 1087.24 368.841 1087.24 373.596C1087.24 378.299 1088.15 382.271 1089.98 385.511C1091.81 388.698 1094.21 391.128 1097.19 392.8C1100.17 394.473 1103.39 395.309 1106.83 395.309ZM1191.42 402.442L1157.72 365.131L1157.95 371.402V402.442H1149.17V344.751H1150.27L1184.13 382.532L1183.82 375.948V344.83H1192.6V402.442H1191.42ZM1251.16 402.442L1224.5 344.83H1234.46L1251.7 384.413L1269.03 344.83H1278.9L1252.33 402.442H1251.16ZM1300.72 344.751H1301.58L1329.33 402.442H1319.22L1314.28 391.154H1287.86L1282.93 402.442H1273.13L1300.72 344.751ZM1301.11 361.447L1297.66 369.285L1291.39 383.238H1310.83L1304.64 369.364L1301.27 361.447H1301.11ZM1337.77 402.442V344.83H1346.62V394.603H1363.16V402.442H1337.77ZM1397.8 403.225C1393.88 403.225 1390.17 402.546 1386.67 401.188C1383.22 399.829 1380.17 397.869 1377.5 395.309C1374.84 392.696 1372.72 389.561 1371.15 385.903C1369.64 382.245 1368.88 378.117 1368.88 373.518C1368.88 368.867 1369.64 364.713 1371.15 361.055C1372.72 357.397 1374.84 354.288 1377.5 351.727C1380.22 349.167 1383.3 347.233 1386.75 345.927C1390.25 344.568 1393.94 343.889 1397.8 343.889C1401.67 343.889 1405.33 344.568 1408.78 345.927C1412.28 347.233 1415.36 349.167 1418.03 351.727C1420.74 354.288 1422.86 357.397 1424.38 361.055C1425.94 364.713 1426.73 368.867 1426.73 373.518C1426.73 378.117 1425.94 382.245 1424.38 385.903C1422.86 389.561 1420.77 392.696 1418.11 395.309C1415.44 397.869 1412.36 399.829 1408.86 401.188C1405.41 402.546 1401.72 403.225 1397.8 403.225ZM1397.8 395.309C1401.36 395.309 1404.62 394.473 1407.6 392.8C1410.58 391.128 1412.96 388.698 1414.73 385.511C1416.51 382.271 1417.4 378.299 1417.4 373.596C1417.4 368.841 1416.51 364.87 1414.73 361.682C1412.96 358.442 1410.58 356.012 1407.6 354.392C1404.68 352.72 1401.41 351.884 1397.8 351.884C1394.2 351.884 1390.91 352.72 1387.93 354.392C1385 356.012 1382.65 358.442 1380.87 361.682C1379.1 364.87 1378.21 368.841 1378.21 373.596C1378.21 378.299 1379.12 382.271 1380.95 385.511C1382.78 388.698 1385.18 391.128 1388.16 392.8C1391.14 394.473 1394.36 395.309 1397.8 395.309ZM1440.14 402.442V344.83H1453.23C1456.16 344.83 1458.98 345.117 1461.7 345.692C1464.47 346.267 1466.92 347.233 1469.06 348.592C1471.21 349.951 1472.91 351.753 1474.16 354C1475.41 356.247 1476.04 359.017 1476.04 362.309C1476.04 366.124 1475.15 369.442 1473.38 372.264C1471.6 375.086 1468.91 377.254 1465.3 378.77L1479.02 402.442H1468.91L1457.31 380.651C1456.42 380.703 1455.32 380.755 1454.01 380.808C1452.76 380.808 1451.72 380.808 1450.88 380.808H1448.68V402.442H1440.14ZM1448.68 373.675H1454.25C1457.12 373.675 1459.42 373.309 1461.15 372.577C1462.92 371.846 1464.28 370.931 1465.22 369.834C1466.16 368.684 1466.79 367.456 1467.11 366.15C1467.47 364.791 1467.65 363.537 1467.65 362.387C1467.65 359.827 1467.05 357.815 1465.85 356.352C1464.7 354.837 1463.08 353.765 1460.99 353.138C1458.95 352.459 1456.6 352.119 1453.94 352.119H1448.68V373.675Z" fill="black"/>
<defs>
<linearGradient id="paint0_linear_21_550" x1="228.366" y1="0" x2="228.366" y2="377.986" gradientUnits="userSpaceOnUse">
<stop stop-color="#7ECEFF"/>
<stop offset="0.466346" stop-color="#425DF6"/>
<stop offset="1" stop-color="#4E37AD"/>
</linearGradient>
<linearGradient id="paint1_linear_21_550" x1="896.743" y1="21.188" x2="896.743" y2="316.188" gradientUnits="userSpaceOnUse">
<stop stop-color="#7ECEFF"/>
<stop offset="0.466346" stop-color="#425DF6"/>
<stop offset="1" stop-color="#4E37AD"/>
</linearGradient>
</defs>
</svg>
