<svg width="1520" height="435" viewBox="0 0 1520 435" fill="none" xmlns="http://www.w3.org/2000/svg">
<path d="M268.819 425.234H356.987C359.886 425.234 362.236 422.883 362.236 419.984V395.838C362.236 394.488 361.716 393.19 360.784 392.213L33.0501 48.8732C32.0595 47.8354 30.6873 47.2482 29.2526 47.2482H5.25C2.35062 47.2482 0.000213623 49.5986 0.000213623 52.498V419.984C0.000213623 422.883 2.35062 425.234 5.25 425.234H29.3245C30.7168 425.234 32.0521 424.681 33.0366 423.696L77.2096 379.523C78.1941 378.539 78.7472 377.203 78.7472 375.811V248.968C78.7472 244.283 84.4173 241.944 87.72 245.267L265.096 423.685C266.081 424.676 267.421 425.234 268.819 425.234Z" fill="white"/>
<path d="M140.665 0H52.4978C49.5985 0 47.248 2.35042 47.248 5.2498V29.3954C47.248 30.7455 47.7682 32.0437 48.7004 33.0203L376.434 376.361C377.425 377.398 378.797 377.986 380.232 377.986H404.234C407.134 377.986 409.484 375.635 409.484 372.736V5.2498C409.484 2.35041 407.134 0 404.234 0H380.16C378.768 0 377.432 0.553101 376.448 1.53763L332.275 45.7106C331.29 46.6951 330.737 48.0304 330.737 49.4227V176.266C330.737 180.95 325.067 183.289 321.764 179.967L144.389 1.54853C143.403 0.557335 142.063 0 140.665 0Z" fill="url(#paint0_linear_21_547)"/>
<path d="M404.234 393.735H383.235C380.336 393.735 377.985 396.085 377.985 398.985V419.984C377.985 422.883 380.336 425.234 383.235 425.234H404.234C407.134 425.234 409.484 422.883 409.484 419.984V398.985C409.484 396.085 407.134 393.735 404.234 393.735Z" fill="#4E37AD"/>
<path d="M26.249 0H5.2498C2.35041 0 0 2.35042 0 5.2498V26.249C0 29.1484 2.35042 31.4988 5.2498 31.4988H26.249C29.1484 31.4988 31.4988 29.1484 31.4988 26.249V5.2498C31.4988 2.35042 29.1484 0 26.249 0Z" fill="white"/>
<path d="M486.426 133.069H526.831L618.109 297.783V133.069H649.223V342.758H608.819L517.541 180.256V342.758H486.426V133.069ZM701.188 245.139C701.188 235.014 703.646 225.773 708.561 217.417C713.575 209.061 720.26 202.425 728.616 197.509C736.972 192.496 746.213 189.989 756.339 189.989H789.665C799.791 189.989 809.031 192.496 817.388 197.509C825.744 202.425 832.379 209.061 837.295 217.417C842.309 225.773 844.815 235.014 844.815 245.139V287.608C844.815 297.734 842.309 306.975 837.295 315.331C832.379 323.687 825.744 330.372 817.388 335.385C809.031 340.301 799.791 342.758 789.665 342.758H756.339C746.213 342.758 736.972 340.301 728.616 335.385C720.26 330.372 713.575 323.687 708.561 315.331C703.646 306.975 701.188 297.734 701.188 287.608V245.139ZM732.303 287.313C732.303 293.998 734.662 299.749 739.381 304.566C744.1 309.285 749.752 311.644 756.339 311.644H789.665C796.35 311.644 802.003 309.285 806.623 304.566C811.342 299.749 813.701 293.998 813.701 287.313V245.434C813.701 238.749 811.342 233.047 806.623 228.329C802.003 223.512 796.35 221.103 789.665 221.103H756.339C749.752 221.103 744.1 223.512 739.381 228.329C734.662 233.047 732.303 238.749 732.303 245.434V287.313ZM910.347 189.989L951.194 297.783L991.745 189.989H1024.48L966.235 342.758H935.71L877.611 189.989H910.347ZM1057.28 245.139C1057.28 235.014 1059.73 225.773 1064.65 217.417C1069.66 209.061 1076.35 202.425 1084.7 197.509C1093.06 192.496 1102.3 189.989 1112.43 189.989H1145.75C1155.88 189.989 1165.12 192.496 1173.48 197.509C1181.83 202.425 1188.47 209.061 1193.38 217.417C1198.4 225.773 1200.9 235.014 1200.9 245.139V287.608C1200.9 297.734 1198.4 306.975 1193.38 315.331C1188.47 323.687 1181.83 330.372 1173.48 335.385C1165.12 340.301 1155.88 342.758 1145.75 342.758H1112.43C1102.3 342.758 1093.06 340.301 1084.7 335.385C1076.35 330.372 1069.66 323.687 1064.65 315.331C1059.73 306.975 1057.28 297.734 1057.28 287.608V245.139ZM1088.39 287.313C1088.39 293.998 1090.75 299.749 1095.47 304.566C1100.19 309.285 1105.84 311.644 1112.43 311.644H1145.75C1152.44 311.644 1158.09 309.285 1162.71 304.566C1167.43 299.749 1169.79 293.998 1169.79 287.313V245.434C1169.79 238.749 1167.43 233.047 1162.71 228.329C1158.09 223.512 1152.44 221.103 1145.75 221.103H1112.43C1105.84 221.103 1100.19 223.512 1095.47 228.329C1090.75 233.047 1088.39 238.749 1088.39 245.434V287.313ZM1249.92 232.753C1249.92 224.888 1251.89 217.712 1255.82 211.223C1259.85 204.735 1265.16 199.574 1271.74 195.74C1278.43 191.906 1285.8 189.989 1293.86 189.989H1327.93V220.956H1293.86C1290.32 220.956 1287.28 222.185 1284.72 224.642C1282.26 227.002 1281.03 229.902 1281.03 233.342V342.758H1249.92V232.753ZM1395.38 189.989L1435.04 295.866L1475.59 189.989H1509.95L1428.85 400.268H1394.79L1418.53 337.745L1362.34 189.989H1395.38Z" fill="url(#paint1_linear_21_547)"/>
<defs>
<linearGradient id="paint0_linear_21_547" x1="228.366" y1="0" x2="228.366" y2="377.986" gradientUnits="userSpaceOnUse">
<stop stop-color="#7ECEFF"/>
<stop offset="0.466346" stop-color="#425DF6"/>
<stop offset="1" stop-color="#4E37AD"/>
</linearGradient>
<linearGradient id="paint1_linear_21_547" x1="992.782" y1="52.7584" x2="992.782" y2="421.758" gradientUnits="userSpaceOnUse">
<stop stop-color="#7ECEFF"/>
<stop offset="0.466346" stop-color="#425DF6"/>
<stop offset="1" stop-color="#4E37AD"/>
</linearGradient>
</defs>
</svg>
