<svg width="590" height="621" viewBox="0 0 590 621" fill="none" xmlns="http://www.w3.org/2000/svg">
<path d="M383.48 606.611H509.254C513.39 606.611 516.743 603.258 516.743 599.122V564.677C516.743 562.752 516.001 560.9 514.671 559.506L47.1472 69.7194C45.7341 68.239 43.7766 67.4013 41.73 67.4013H7.48947C3.35339 67.4013 0.000427246 70.7543 0.000427246 74.8904V599.122C0.000427246 603.258 3.35339 606.611 7.48944 606.611H41.8325C43.8188 606.611 45.7236 605.822 47.1281 604.418L110.142 541.403C111.547 539.999 112.336 538.094 112.336 536.108V355.162C112.336 348.479 120.424 345.142 125.136 349.882L378.169 604.402C379.575 605.816 381.486 606.611 383.48 606.611Z" fill="white"/>
<path d="M200.665 0H74.8904C70.7543 0 67.4014 3.35294 67.4014 7.48901V41.9336C67.4014 43.8596 68.1434 45.7115 69.4732 47.1046L536.997 536.892C538.41 538.372 540.368 539.21 542.414 539.21H576.655C580.791 539.21 584.144 535.857 584.144 531.721V7.48903C584.144 3.35295 580.791 0 576.655 0H542.312C540.326 0 538.421 0.789018 537.016 2.19348L474.002 65.2077C472.598 66.6122 471.809 68.5171 471.809 70.5033V251.45C471.809 258.132 463.72 261.469 459.009 256.73L205.976 2.20903C204.57 0.795058 202.659 0 200.665 0Z" fill="url(#paint0_linear_21_304)"/>
<path d="M576.655 561.677H546.699C542.563 561.677 539.21 565.03 539.21 569.166V599.122C539.21 603.258 542.563 606.611 546.699 606.611H576.655C580.791 606.611 584.144 603.258 584.144 599.122V569.166C584.144 565.03 580.791 561.677 576.655 561.677Z" fill="#4E37AD"/>
<path d="M37.4451 0H7.48903C3.35295 0 0 3.35294 0 7.48902V37.4451C0 41.5812 3.35294 44.9342 7.48902 44.9342H37.4451C41.5812 44.9342 44.9342 41.5812 44.9342 37.4451V7.48903C44.9342 3.35295 41.5812 0 37.4451 0Z" fill="white"/>
<defs>
<linearGradient id="paint0_linear_21_304" x1="325.773" y1="0" x2="325.773" y2="539.21" gradientUnits="userSpaceOnUse">
<stop stop-color="#7ECEFF"/>
<stop offset="0.466346" stop-color="#425DF6"/>
<stop offset="1" stop-color="#4E37AD"/>
</linearGradient>
</defs>
</svg>
